# xmcd
#
# Track frame offsets:
#	150
#	12165
#	27528
#	45788
#	58435
#	72157
#	85299
#	101350
#	112987
#	125518
#	140473
#	155494
#	171728
#	182288
#	192994
#
# Disc length: 2744 seconds
#
# Revision: 0
# Processed by: cddbd v1.5.2PL0 Copyright (c) Steve Scherf et al.
# Submitted via: dBpowerAMP V4.0
#
DISCID=ca0ab60f
DTITLE=Verschiedene Interpreten - Schlagerstars und ihre Hits - CD 4 von 8
DYEAR=1900
DGENRE=
TTITLE0=Heidi Brühl - Wir wollen niemals auseinander geh´n
TTITLE1=Rene Carol - Rote Rosen, rote Lippen, roter Wein
TTITLE2=Daliah Lavi - Wär´ ich ein Buch im Leben
TTITLE3=Michael Morgan - Trinidad
TTITLE4=Cindy and Bert - Wir zwei fahren irgendwo hin
TTITLE5=Jürgen Scheller - Nehm´s Sie´n Alten
TTITLE6=Renate Kern - Tenessee Waltz
TTITLE7=The Sirs - Elisabeth, Elisabeth
TTITLE8=Willi Hagara - Casetta in Canada
TTITLE9=Margot Hellwig - Millionenmal
TTITLE10=Diana Leonhardt - Flieg, mein Adler, flieg
TTITLE11=Peter Rubin - Azzuro
TTITLE12=Fats and his Cats - Dominozeit
TTITLE13=Ralf Paulsen - Geisterreiter
TTITLE14=Peter Kraus - Das alte Haus von Rocky Docky
EXTD=Schlagerstars und ihre Hits - CD 4 von 8\n01 Heidi Brühl - Wir wollen niemals auseinander geh´n\n
EXTT0=
EXTT1=
EXTT2=
EXTT3=
EXTT4=
EXTT5=
EXTT6=
EXTT7=
EXTT8=
EXTT9=
EXTT10=
EXTT11=
EXTT12=
EXTT13=
EXTT14=
PLAYORDER=
